<svg width="29" height="32" viewBox="0 0 29 32" fill="none" xmlns="http://www.w3.org/2000/svg">
<path d="M25.8508 28.8915H3.80637V11.7943H25.8508M21.127 0.914307V4.02288H8.53018V0.914307H5.38098V4.02288H3.80637C2.05856 4.02288 0.657166 5.40619 0.657166 7.13145V28.8915C0.657166 29.7159 0.988956 30.5066 1.57955 31.0895C2.17014 31.6725 2.97115 32 3.80637 32H25.8508C26.686 32 27.4871 31.6725 28.0776 31.0895C28.6682 30.5066 29 29.7159 29 28.8915V7.13145C29 6.30701 28.6682 5.51633 28.0776 4.93336C27.4871 4.35039 26.686 4.02288 25.8508 4.02288H24.2762V0.914307M22.7016 18.0114H14.8286V25.7829H22.7016V18.0114Z" fill="white"/>
</svg>
