<svg width="30" height="30" viewBox="0 0 30 30" fill="none" xmlns="http://www.w3.org/2000/svg">
<path d="M0.75 29.25V22.5208L21.65 1.66042C21.9667 1.37014 22.3166 1.14583 22.6998 0.9875C23.0829 0.829167 23.4851 0.75 23.9062 0.75C24.3285 0.75 24.7375 0.829167 25.1333 0.9875C25.5292 1.14583 25.8722 1.38333 26.1625 1.7L28.3396 3.91667C28.6562 4.20694 28.8874 4.55 29.0331 4.94583C29.1788 5.34167 29.2511 5.7375 29.25 6.13333C29.25 6.55556 29.1777 6.95825 29.0331 7.34142C28.8885 7.72458 28.6573 8.07397 28.3396 8.38958L7.47917 29.25H0.75ZM23.8667 8.35L26.0833 6.13333L23.8667 3.91667L21.65 6.13333L23.8667 8.35Z" fill="white"/>
</svg>
