<svg width="32" height="28" viewBox="0 0 32 28" fill="none" xmlns="http://www.w3.org/2000/svg">
<path d="M18.5 0.5C14.9196 0.5 11.4858 1.92232 8.95406 4.45406C6.42232 6.9858 5 10.4196 5 14H0.5L6.335 19.835L6.44 20.045L12.5 14H8C8 8.195 12.695 3.5 18.5 3.5C24.305 3.5 29 8.195 29 14C29 19.805 24.305 24.5 18.5 24.5C15.605 24.5 12.98 23.315 11.09 21.41L8.96 23.54C10.2101 24.797 11.6967 25.7941 13.3341 26.4738C14.9715 27.1534 16.7272 27.5022 18.5 27.5C22.0804 27.5 25.5142 26.0777 28.0459 23.5459C30.5777 21.0142 32 17.5804 32 14C32 10.4196 30.5777 6.9858 28.0459 4.45406C25.5142 1.92232 22.0804 0.5 18.5 0.5ZM17 8V15.5L23.42 19.31L24.5 17.495L19.25 14.375V8H17Z" fill="white"/>
</svg>
