<svg width="21" height="17" viewBox="0 0 21 17" fill="none" xmlns="http://www.w3.org/2000/svg">
<path d="M0.454231 1.982L9.32923 10.858C9.59178 11.1207 9.94247 11.2767 10.3134 11.2957C10.6844 11.3148 11.0492 11.1955 11.3372 10.961L11.4512 10.858L20.3202 1.988C20.3492 2.098 20.3682 2.21 20.3782 2.325L20.3862 2.5V14.5C20.3864 15.0046 20.1958 15.4906 19.8527 15.8605C19.5096 16.2305 19.0394 16.4572 18.5362 16.495L18.3862 16.5H2.38623C1.88165 16.5002 1.39566 16.3096 1.02568 15.9665C0.655701 15.6234 0.429074 15.1532 0.391231 14.65L0.38623 14.5V2.5C0.38623 2.38 0.39623 2.264 0.41623 2.15L0.454231 1.982ZM18.3862 0.5C18.5072 0.5 18.6262 0.51 18.7412 0.531L18.9112 0.57L10.3912 9.09L1.86823 0.568C1.97823 0.538 2.09223 0.518 2.20823 0.508L2.38623 0.5H18.3862Z" fill="white"/>
</svg>
