<svg width="26" height="29" viewBox="0 0 26 29" fill="none" xmlns="http://www.w3.org/2000/svg">
<path d="M12.9998 13.6673C16.4989 13.6673 19.3331 10.684 19.3331 7.00065C19.3331 3.31732 16.4989 0.333984 12.9998 0.333984C9.50061 0.333984 6.66644 3.31732 6.66644 7.00065C6.66644 10.684 9.50061 13.6673 12.9998 13.6673ZM12.9998 3.66732C14.7414 3.66732 16.1664 5.16732 16.1664 7.00065C16.1664 8.83398 14.7414 10.334 12.9998 10.334C11.2581 10.334 9.83311 8.83398 9.83311 7.00065C9.83311 5.16732 11.2581 3.66732 12.9998 3.66732ZM23.1173 17.934C20.4573 16.5007 17.0056 15.334 12.9998 15.334C8.99394 15.334 5.54228 16.5007 2.88228 17.934C2.1097 18.3528 1.4625 18.9889 1.01252 19.7715C0.562533 20.554 0.327363 21.4526 0.333111 22.3673V33.6673H3.49978V22.3673C3.49978 21.734 3.81644 21.1673 4.29144 20.9007C6.20728 19.884 9.24728 18.6673 12.9998 18.6673C14.2031 18.6673 15.3273 18.784 16.3723 19.0007L13.9181 24.5007H9.43728C7.03061 24.5007 5.08311 26.5507 5.08311 29.084C5.08311 31.6173 7.03061 33.6673 9.43728 33.6673H22.4998C24.2414 33.6673 25.6664 32.1673 25.6664 30.334V22.3673C25.6664 20.5007 24.7006 18.784 23.1173 17.934ZM11.3214 30.334H9.43728C8.78811 30.334 8.24978 29.7673 8.24978 29.084C8.24978 28.4007 8.78811 27.834 9.43728 27.834H12.4298L11.3214 30.334ZM22.4998 30.334H14.8206L19.4756 19.884C20.3306 20.2173 21.0748 20.5673 21.7081 20.9007C22.1831 21.1673 22.4998 21.734 22.4998 22.3673V30.334Z" fill="white"/>
</svg>
